<svg id="Layer_1" data-name="Layer 1" xmlns="http://www.w3.org/2000/svg" viewBox="0 0 256 256"><defs><style>.cls-1{fill:#d3d3d3;}.cls-2{opacity:0.8;}.cls-3{fill:#fff;}.cls-4{fill:#50b649;}.cls-5{fill:#9b5d8f;}</style></defs><title>woo-wechatpay-icon</title><rect class="cls-1" width="256" height="256"/><rect class="cls-2" y="98" width="256" height="60"/><path class="cls-3" d="M9,136.17h-2L17.66,118.5h1.9Z" transform="translate(0 0)"/><path class="cls-3" d="M25,128.58v-3.73l-2.82,2-1-1.73,3.3-1.61-3.3-1.63,1-1.71,2.82,2V118.5h2v3.74l2.83-2,1,1.7-3.31,1.63,3.31,1.61-1,1.74-2.83-2v3.73Z" transform="translate(0 0)"/><path class="cls-3" d="M47.23,135.66,45.3,119h2l1.13,10.15.15,1.69h.05l.22-1.69L50.59,119h2l2,10.56.2,1.61h.05l.13-1.62L56.2,119h1.7l-2,16.67H53.83l-2.15-11.3-.23-1.7H51.4l-.2,1.7-1.93,11.3Z" transform="translate(0 0)"/><path class="cls-3" d="M64.36,136a5.16,5.16,0,0,1-4.12-1.8,7.43,7.43,0,0,1,0-9.07,5.62,5.62,0,0,1,8.23,0,7.43,7.43,0,0,1,0,9.07A5.15,5.15,0,0,1,64.36,136Zm0-1.67a3,3,0,0,0,2.54-1.25,6.68,6.68,0,0,0,0-6.84,3.23,3.23,0,0,0-5.1,0,6.68,6.68,0,0,0,0,6.84A3,3,0,0,0,64.36,134.33Z" transform="translate(0 0)"/><path class="cls-3" d="M77.12,136A5.16,5.16,0,0,1,73,134.2a7.43,7.43,0,0,1,0-9.07,5.62,5.62,0,0,1,8.23,0,7.43,7.43,0,0,1,0,9.07A5.15,5.15,0,0,1,77.12,136Zm0-1.67a3,3,0,0,0,2.54-1.25,6.67,6.67,0,0,0,0-6.84,3.23,3.23,0,0,0-5.09,0,6.68,6.68,0,0,0,0,6.84A3,3,0,0,0,77.12,134.33Z" transform="translate(0 0)"/><path class="cls-3" d="M98.28,135.66,96.35,119h2l1.13,10.15.15,1.69h.05l.22-1.69L101.64,119h2l2,10.56.2,1.61h.05l.13-1.62L107.25,119h1.7l-2,16.67h-2.05l-2.15-11.3-.23-1.7h-.05l-.2,1.7-1.93,11.3Z" transform="translate(0 0)"/><path class="cls-3" d="M120.45,134.87a10.64,10.64,0,0,1-4.53,1.13,5.33,5.33,0,0,1-2.9-.8,5.74,5.74,0,0,1-2-2.3,6.92,6.92,0,0,1-.77-3.2,7.17,7.17,0,0,1,.73-3.16,5.64,5.64,0,0,1,2-2.36,5.29,5.29,0,0,1,2.92-.84,4.28,4.28,0,0,1,3.43,1.52,7.14,7.14,0,0,1,1.29,4.7V130h-8.27a5,5,0,0,0,.52,2.28,3.71,3.71,0,0,0,1.37,1.55,3.64,3.64,0,0,0,1.93.52,9,9,0,0,0,4.28-1.29Zm-8-6.38h6v-.29a3.55,3.55,0,0,0-.72-2.33,2.37,2.37,0,0,0-1.92-.87,2.87,2.87,0,0,0-2.1.88A5,5,0,0,0,112.47,128.49Z" transform="translate(0 0)"/><path class="cls-3" d="M133.26,135.47a9.7,9.7,0,0,1-3.35.7,6.56,6.56,0,0,1-3.6-1,6.84,6.84,0,0,1-2.56-3.12,12.44,12.44,0,0,1,0-9.33,6.88,6.88,0,0,1,2.55-3.13,6.53,6.53,0,0,1,3.62-1.06,9.77,9.77,0,0,1,3.35.69v2a6.8,6.8,0,0,0-3.44-1,3.62,3.62,0,0,0-2.36.88,6.1,6.1,0,0,0-1.72,2.59,10.77,10.77,0,0,0,0,7.46,6.11,6.11,0,0,0,1.73,2.57,3.61,3.61,0,0,0,2.33.85,6.87,6.87,0,0,0,3.44-1Z" transform="translate(0 0)"/><path class="cls-3" d="M136,135.66V118.33h2v8a6.78,6.78,0,0,1,2.07-2.17,4.45,4.45,0,0,1,2.43-.78,3.47,3.47,0,0,1,1.86.52,2.9,2.9,0,0,1,1.18,1.26,4.35,4.35,0,0,1,.37,1.21A22.24,22.24,0,0,1,146,129v6.7h-2v-7a9.82,9.82,0,0,0-.17-2.28,1.79,1.79,0,0,0-.61-.91,1.53,1.53,0,0,0-1-.35,3.65,3.65,0,0,0-2.26,1,8,8,0,0,0-2,2.5v7Z" transform="translate(0 0)"/><path class="cls-3" d="M156.65,133a6.44,6.44,0,0,1-2.2,2.26,4.7,4.7,0,0,1-2.36.76,3.6,3.6,0,0,1-2.7-1.3,5.65,5.65,0,0,1-1.2-3.94A8.42,8.42,0,0,1,149,127a6.7,6.7,0,0,1,2.13-2.59,5.55,5.55,0,0,1,3.3-1q.57,0,1.72.12l.51.05h2v8.47a11.16,11.16,0,0,0,.46,3.53H157A18.09,18.09,0,0,1,156.65,133Zm0-2.39v-5.15a7.82,7.82,0,0,0-2-.28,3.9,3.9,0,0,0-3.08,1.43,5.76,5.76,0,0,0-1.23,3.89,4.5,4.5,0,0,0,.67,2.69,1.91,1.91,0,0,0,1.53.91,3.36,3.36,0,0,0,2.07-.95A9,9,0,0,0,156.66,130.59Z" transform="translate(0 0)"/><path class="cls-3" d="M171.55,135.18a11.16,11.16,0,0,1-2,.7,7,7,0,0,1-1.22.11,5.39,5.39,0,0,1-2.3-.48,3.38,3.38,0,0,1-1.57-1.43,6.16,6.16,0,0,1-.53-2.92v-4.83h-3v-1.67h3v-4.83h2v4.83h5.34v1.67h-5.34v4.8a4.38,4.38,0,0,0,.34,2,2.11,2.11,0,0,0,.92.88,3.07,3.07,0,0,0,1.36.28,6.17,6.17,0,0,0,3.05-.91Z" transform="translate(0 0)"/><path class="cls-3" d="M176.68,129.58v6.08h-2.17V119h4.15a9,9,0,0,1,3.73.57,4.06,4.06,0,0,1,1.79,1.68,5,5,0,0,1,.62,2.47,5.67,5.67,0,0,1-.84,3,5.57,5.57,0,0,1-2.34,2.13,9.21,9.21,0,0,1-4.07.75Zm0-1.67h.93a6.58,6.58,0,0,0,3-.52,3.6,3.6,0,0,0,1.5-1.5,4.41,4.41,0,0,0,.53-2.12,2.9,2.9,0,0,0-.94-2.28q-.94-.84-3.71-.84h-1.3Z" transform="translate(0 0)"/><path class="cls-3" d="M194.93,133a6.44,6.44,0,0,1-2.2,2.26,4.7,4.7,0,0,1-2.36.76,3.6,3.6,0,0,1-2.7-1.3,5.65,5.65,0,0,1-1.2-3.94,8.42,8.42,0,0,1,.8-3.72,6.7,6.7,0,0,1,2.13-2.59,5.55,5.55,0,0,1,3.3-1q.57,0,1.72.12l.51.05h2v8.47a11.16,11.16,0,0,0,.46,3.53h-2.08A18.09,18.09,0,0,1,194.93,133Zm0-2.39v-5.15a7.82,7.82,0,0,0-2-.28,3.9,3.9,0,0,0-3.08,1.43,5.76,5.76,0,0,0-1.23,3.89,4.5,4.5,0,0,0,.67,2.69,1.91,1.91,0,0,0,1.53.91,3.36,3.36,0,0,0,2.07-.95A9,9,0,0,0,194.94,130.59Z" transform="translate(0 0)"/><path class="cls-3" d="M204.23,135.19l-5.54-11.53h2.2l4.42,9,3.69-9h2l-4.64,11.15a13.29,13.29,0,0,1-2.8,4.68,5,5,0,0,1-3.43,1.16,7.52,7.52,0,0,1-1.63-.16v-1.76a5.34,5.34,0,0,0,1.58.26,3.8,3.8,0,0,0,1.72-.37,3.65,3.65,0,0,0,1.37-1.33,8.65,8.65,0,0,0,.88-1.65Z" transform="translate(0 0)"/><path class="cls-3" d="M229.24,128.58v-3.73l-2.82,2-1-1.73,3.3-1.61-3.3-1.63,1-1.71,2.82,2V118.5h2v3.74l2.83-2,1,1.7-3.31,1.63,3.31,1.61-1,1.74-2.83-2v3.73Z" transform="translate(0 0)"/><path class="cls-3" d="M238.75,136.17h-2l10.59-17.67h1.9Z" transform="translate(0 0)"/><path class="cls-4" d="M168.37,33.79a32.36,32.36,0,0,1-3.71,36c-7.85,9.36-18.09,14.26-30.08,15.7a51.46,51.46,0,0,1-21.08-1.56,4.94,4.94,0,0,0-4,.76c-2.75,1.56-5.48,3.16-8.21,4.77-.87.51-1.8,1.12-2.73.45s-.34-1.83-.12-2.72c.48-2,1-4,1.62-5.89.74-2.15,0-3.61-1.68-4.92A37.68,37.68,0,0,1,86.64,62c-1.39-3-1.9-6.3-2.75-9.48l-.06-6.34c.76-3.57,1.4-7.18,3-10.5,5.5-11.19,14.66-18,26.4-21.38,16-4.58,31-2.28,44.68,7.52a61.82,61.82,0,0,1,5,4.58" transform="translate(0 0)"/><path class="cls-5" d="M143.11,234l5.22,12.85L142,243.34q-8-4.46-16.08-8.92a3.39,3.39,0,0,0-1.73-.39l-49.37,0A12.21,12.21,0,0,1,62.44,221.6q0-20.22,0-40.43a12,12,0,0,1,9.39-12.1,11.69,11.69,0,0,1,2.95-.33H181a12.16,12.16,0,0,1,12.5,10.48,10.23,10.23,0,0,1,.12,1.8q0,20.43,0,40.86A12.23,12.23,0,0,1,181.43,234q-18.46,0-36.92,0Z" transform="translate(0 0)"/></svg>